<?xml version="1.0" standalone="yes"?>
<svg xmlns="http://www.w3.org/2000/svg" width="144" height="145">
<path style="fill:#53894b; stroke:none;" d="M117 2L113 5C114.636 10.6505 120.652 15.7055 123.667 21C130.431 32.8787 136.602 50.1716 135.833 64C135.235 74.7715 132.162 86.1919 127.667 96C125.72 100.248 122.21 103.402 121 108C126.565 104.691 130.447 94.7844 133.5 89C146.224 64.8917 143.11 17.1163 117 2z"/>
<path style="fill:#9e251d; stroke:none;" d="M121 5L122 6L121 5M112 6L102 17L112 6z"/>
<path style="fill:#df948b; stroke:none;" d="M31 90L55 81.8333L67 73C65.9631 69.4178 66.0288 68.3595 69 66L70 69C81.5185 59.6145 93.9482 37.1688 109 34C109 29.9028 114.104 31.2759 117 32C123.106 33.5265 128.105 39.7614 131 45C135.799 38.4017 124.049 20.8269 120.333 15C118.831 12.6436 115.467 6.29614 112 7.5C104.546 10.0883 95.6019 23.3981 90 29C77.1336 41.8664 64.8463 55.1537 52 68C45.2369 74.7631 35.7539 81.7887 31 90M116.333 7.66667L116.667 8.33333L116.333 7.66667M123 17L124 18L123 17z"/>
<path style="fill:#9e251d; stroke:none;" d="M100 18L101 19L100 18M98 20L99 21L98 20z"/>
<path style="fill:#df948b; stroke:none;" d="M129 20L130 21L129 20z"/>
<path style="fill:#9e251d; stroke:none;" d="M97 21L98 22L97 21M96 22L97 23L96 22M95 23L96 24L95 23z"/>
<path style="fill:#df948b; stroke:none;" d="M127 23L133 36L134 36L132 24L127 23z"/>
<path style="fill:#9e251d; stroke:none;" d="M94 24L95 25L94 24M93 25L94 26L93 25M92 26L93 27L92 26M91 27L92 28L91 27M90 28L91 29L90 28M89 29L90 30L89 29z"/>
<path style="fill:#53894b; stroke:none;" d="M132.333 29.6667L132.667 30.3333L132.333 29.6667z"/>
<path style="fill:#9e251d; stroke:none;" d="M88 30L89 31L88 30M87 31L88 32L87 31z"/>
<path style="fill:#e53b33; stroke:none;" d="M109 34C98.3287 34.8425 92.0825 46.9814 85.1667 53.6667C75.3918 63.1157 66.1858 75.402 54 81.8333C38.9258 89.7892 25.845 88.995 16 106C20.2956 107.809 23.9243 105.88 26 111L28 110C29.5376 114.753 38.4785 114.749 43 115C57.176 115.788 67.0952 114 81 114C80.332 112.441 77.2102 109.674 77.6667 108C78.9554 103.275 83.3788 109.468 84 111C100.422 109.271 106.191 88.0976 114 77C109.58 73.3942 108.373 71.6201 110 66L115 72L116 72L115 69L117 70L122 49L117 49C117.125 44.2437 118.894 41.3772 123 39L123 44L125 44L124 48L133 54C133 45.151 128.521 36.5236 120 32.5C116.947 31.0584 108.223 29.3372 109 34z"/>
<path style="fill:#9e251d; stroke:none;" d="M86 32L87 33L86 32M85 33L86 34L85 33M84 34L85 35L84 34M83 35L84 36L83 35z"/>
<path style="fill:#df948b; stroke:none;" d="M135.333 35.6667L135.667 36.3333L135.333 35.6667z"/>
<path style="fill:#9e251d; stroke:none;" d="M82 36L83 37L82 36z"/>
<path style="fill:#df948b; stroke:none;" d="M105 36L106 37L105 36z"/>
<path style="fill:#9e251d; stroke:none;" d="M107 36L107 37L107 38L109 37L107 39L107 40C110.855 39.5464 110.262 37.0553 107 36M81 37L82 38L81 37z"/>
<path style="fill:#0e0904; stroke:none;" d="M108 37L107 39L109 39L108 37z"/>
<path style="fill:#df948b; stroke:none;" d="M133 37L134 38L133 37z"/>
<path style="fill:#9e251d; stroke:none;" d="M80 38L81 39L80 38M79 39L80 40L79 39M117 49L122 49L117 70L115 69L116 72L115 72C113.692 68.686 112.489 66.5409 109 67L109 68C112.41 68 112.757 70.92 113 74L110 69L109 69C109 73.4628 109.974 74.987 114 77C102.493 87.356 101.767 105.857 84 111C82.4249 103.715 74.7155 105.853 81 114C67.835 114 58.2638 116.29 45 115C39.5374 114.469 31.1924 114.934 28 110L26 111C24.8562 105.71 20.4425 107.286 16 106L20 100C16.8348 101.832 5.6733 110.433 7.5 115C11.0036 123.759 31.754 130.605 40 132.667C95.5892 146.564 138.181 98.954 134 46L133 46L133 54L124 48L125 44L123 44L123 39C117.987 40.4511 117 44.1599 117 49M78 40L79 41L78 40z"/>
<path style="fill:#0e0904; stroke:none;" d="M121 40L118 47L123 40L121 40z"/>
<path style="fill:#9e251d; stroke:none;" d="M77 41L78 42L77 41M76 42L77 43L76 42M75 43L76 44L75 43M74 44L75 45L74 44M132.333 44.6667L132.667 45.3333L132.333 44.6667M73 45L74 46L73 45z"/>
<path style="fill:#e53b33; stroke:none;" d="M122.333 45.6667L122.667 46.3333L122.333 45.6667z"/>
<path style="fill:#9e251d; stroke:none;" d="M72 46L73 47L72 46M71 47L72 48L71 47z"/>
<path style="fill:#df948b; stroke:none;" d="M132 47L133 48L132 47z"/>
<path style="fill:#9e251d; stroke:none;" d="M70 48L71 49L70 48M94 50L94 51L97 53L98 53L97 49L94 50M68 50L69 51L68 50z"/>
<path style="fill:#0e0904; stroke:none;" d="M95 50L93 57C97.1683 56.5236 97 53.7184 97 50L95 50z"/>
<path style="fill:#9e251d; stroke:none;" d="M67 51L68 52L67 51M93 52L93 55L94 55L93 52M65 54L66 55L65 54M64 55L65 56L64 55z"/>
<path style="fill:#53894b; stroke:none;" d="M75 55L77 57L77 55L75 55z"/>
<path style="fill:#9e251d; stroke:none;" d="M96.3333 55.6667L96.6667 56.3333L96.3333 55.6667z"/>
<path style="fill:#e53b33; stroke:none;" d="M77 56L78 57L77 56z"/>
<path style="fill:#9e251d; stroke:none;" d="M93 57L93 58L96 58L93 57M58 61L59 62L58 61M57 62L58 63L57 62M83 64L82 69L83 69L83 65L86 69L87 69L85 64L83 64M54 65L55 66L54 65z"/>
<path style="fill:#0e0904; stroke:none;" d="M83 65L86 72C87.0592 68.904 86.3093 66.2134 83 65z"/>
<path style="fill:#e53b33; stroke:none;" d="M68 66L69 67L68 66z"/>
<path style="fill:#9e251d; stroke:none;" d="M52 67L53 68L52 67z"/>
<path style="fill:#e53b33; stroke:none;" d="M66 67L67 68L66 67z"/>
<path style="fill:#9e251d; stroke:none;" d="M67 67L66 72L70 68L69 67L67 67z"/>
<path style="fill:#0e0904; stroke:none;" d="M110 67C109.239 70.2132 109.59 72.8968 113 74L110 67z"/>
<path style="fill:#9e251d; stroke:none;" d="M51 68L52 69L51 68M50 69L51 70L50 69M49 70L50 71L49 70M83 70L84 71L83 70M48 71L49 72L48 71M84 71L85 72L84 71M86 71L85 73L87 73L86 71M47 72L48 73L47 72M46 73L47 74L46 73M45 74L46 75L45 74M44 75L45 76L44 75M43 76L44 77L43 76M42 77L43 78L42 77M41 78L42 79L41 78M40 79L41 80L40 79M39 80L40 81L39 80M38 81L39 82L38 81M37 82L38 83L37 82M36 83L37 84L36 83M35 84L36 85L35 84M34 85L35 86L34 85M33 86L34 87L33 86z"/>
<path style="fill:#e53b33; stroke:none;" d="M32 87L33 88L32 87z"/>
<path style="fill:#9e251d; stroke:none;" d="M31 88L32 89L31 88M50 88L53 92L53 91L50 88z"/>
<path style="fill:#0e0904; stroke:none;" d="M51 88C51.4001 91.5011 52.8847 92.0658 56 91L56 89L51 88z"/>
<path style="fill:#9e251d; stroke:none;" d="M54.6667 88.3333L55.3333 88.6667L54.6667 88.3333M30 89L31 90L30 89M56 89L55 92L56 89M63 92L69 90C66.4738 88.1628 64.616 89.5025 63 92M83 89L83 90L90 91L90 92L82 91C84.265 94.5004 87.3081 94.5545 91 93C89.7267 88.717 87.0402 89 83 89M29 90L30 91L29 90z"/>
<path style="fill:#0e0904; stroke:none;" d="M63 93C66.1844 94.0894 67.9412 93.3689 69 90L63 93M83 90C84.1895 93.6765 86.7937 93.35 90 92L83 90z"/>
<path style="fill:#9e251d; stroke:none;" d="M28 91L29 92L28 91M27 92L28 93L27 92M68 92L69 93L68 92M26 93L27 94L26 93M63 93L64 94L63 93M66 93L67 94L66 93M25 94L26 95L25 94M24 95L25 96L24 95M23 96L24 97L23 96M22 97L23 98L22 97z"/>
<path style="fill:#0e0904; stroke:none;" d="M108 103C112.2 102.889 115.718 102.313 117 98C112.62 97.078 108.525 98.1415 108 103z"/>
<path style="fill:#9e251d; stroke:none;" d="M21 98L22 99L21 98M20 99L21 100L20 99M29 100C29.3329 103.079 29.9207 103.667 33 104L33 103L30 103C31.6787 100.482 32.9242 99.7727 34 103L35 103L35 99L29 100z"/>
<path style="fill:#0e0904; stroke:none;" d="M30 103C32.8902 102.922 33.6536 102.945 34 100L30 103M78 107C78.8986 109.777 79.3337 109.865 82 109L78 107z"/>
<path style="fill:#9e251d; stroke:none;" d="M77 111L78 112L77 111z"/>
<path style="fill:#53894b; stroke:none;" d="M116 112L115 114L117 114L116 112z"/>
<path style="fill:#0e0904; stroke:none;" d="M64 114L64 117L66 117L66 114L64 114z"/>
<path style="fill:#53894b; stroke:none;" d="M110 119L115 116L110 119M2 119L17 127C15.5438 122.367 5.70057 113.281 2 119z"/>
<path style="fill:#0e0904; stroke:none;" d="M22 117L22 122L25 117L22 117M41 119L40 126L42 126L43 119L41 119z"/>
<path style="fill:#53894b; stroke:none;" d="M107 121L105 124L107 121z"/>
<path style="fill:#0e0904; stroke:none;" d="M13 124L14 125L13 124z"/>
<path style="fill:#53894b; stroke:none;" d="M94 129L94 130L104 124L94 129z"/>
<path style="fill:#0e0904; stroke:none;" d="M76 131L82 126C77.858 126.109 76.1176 126.648 76 131z"/>
<path style="fill:#53894b; stroke:none;" d="M92 130C77.8275 138.578 56.6998 138.822 41 135.333C37.0761 134.461 30.394 133.938 28 131L27 131L25 132L25 133C41.1534 138.951 57.7975 142.445 75 137.667C78.1484 136.792 94.1508 133.226 92 130z"/>
</svg>
